<svg xmlns="http://www.w3.org/2000/svg" viewBox="0 0 900 230" width="900" height="230" role="img" aria-labelledby="t d">
  <title id="t">@git-fabric/unifi-vllm</title>
  <desc id="d">UniFi-Ops: Ollama model specialized for UniFi API</desc>
  <defs>
    <pattern id="g" width="22" height="22" patternUnits="userSpaceOnUse"><path d="M22 0H0V22" fill="none" stroke="#161b22"/></pattern>
    <linearGradient id="u" x1="0" x2="1"><stop offset="0" stop-color="#a371f7"/><stop offset=".5" stop-color="#a371f7" stop-opacity=".25"/><stop offset="1" stop-color="#a371f7" stop-opacity="0"/></linearGradient>
    <radialGradient id="h" cx="10%" cy="40%" r="35%"><stop offset="0" stop-color="#a371f7" stop-opacity=".16"/><stop offset="1" stop-color="#a371f7" stop-opacity="0"/></radialGradient>
  </defs>
  <style>
    text{font-family:ui-monospace,SFMono-Regular,"SF Mono",Menlo,Consolas,"Liberation Mono",monospace}
    .pulse{animation:pulse 2.4s ease-in-out infinite}.d1{animation-delay:.4s}.d2{animation-delay:.8s}
    @keyframes pulse{0%,100%{opacity:.45}50%{opacity:1}}
    .step{animation:step 3s ease-in-out infinite}@keyframes step{0%,100%{opacity:.3}20%{opacity:1}}
    .blink{animation:blink 1s steps(1) infinite}@keyframes blink{50%{opacity:0}}
    .flash{animation:flash 3.2s ease-in-out infinite}@keyframes flash{0%,40%,100%{opacity:1}45%{opacity:.2}50%{opacity:1}55%{opacity:.3}}
    .eq{transform-box:fill-box;transform-origin:bottom;animation:eq 1.4s ease-in-out infinite}.e1{animation-delay:-.4s}.e2{animation-delay:-.8s}
    @keyframes eq{0%,100%{transform:scaleY(.35)}50%{transform:scaleY(1)}}
    .dash{animation:dash 1s linear infinite}@keyframes dash{to{stroke-dashoffset:-14}}
    .shim{animation:shim 4s ease-in-out infinite}@keyframes shim{0%,100%{opacity:.55}50%{opacity:1}}
    @media (prefers-reduced-motion:reduce){*{animation:none!important}}
  </style>
  <rect x="1" y="1" width="898" height="228" rx="16" fill="#0d1117" stroke="#30363d"/>
  <rect x="1" y="1" width="898" height="228" rx="16" fill="url(#g)"/>
  <rect x="1" y="1" width="898" height="228" rx="16" fill="url(#h)"/>
  <g transform="translate(90 98)"><rect x="-30" y="-30" width="60" height="60" rx="12" fill="#161b22" stroke="#a371f7" stroke-width="4"/><rect x="-22" y="-42" width="6" height="12" rx="3" fill="#a371f7"/><rect x="-22" y="30" width="6" height="12" rx="3" fill="#a371f7"/><rect x="-8" y="-42" width="6" height="12" rx="3" fill="#a371f7"/><rect x="-8" y="30" width="6" height="12" rx="3" fill="#a371f7"/><rect x="6" y="-42" width="6" height="12" rx="3" fill="#a371f7"/><rect x="6" y="30" width="6" height="12" rx="3" fill="#a371f7"/><rect x="20" y="-42" width="6" height="12" rx="3" fill="#a371f7"/><rect x="20" y="30" width="6" height="12" rx="3" fill="#a371f7"/><g stroke="#a371f7" stroke-width="2.5" opacity=".7"><line x1="-12" y1="-10" x2="12" y2="0"/><line x1="-12" y1="10" x2="12" y2="0"/><line x1="-12" y1="-10" x2="-12" y2="10"/></g><circle class="pulse" cx="-12" cy="-10" r="5" fill="#a371f7"/><circle class="pulse d1" cx="-12" cy="10" r="5" fill="#a371f7"/><circle class="pulse d2" cx="12" cy="0" r="6" fill="#e6edf3"/></g>
  <line x1="170" y1="30" x2="170" y2="172" stroke="#30363d"/>
  <text x="196" y="56" font-size="15" fill="#8b949e">@git-fabric/</text>
  <text x="194" y="100" font-size="40" font-weight="700" fill="#e6edf3">unifi-vllm</text>
  <text x="196" y="122" font-size="14" fill="#8b949e">UniFi-Ops: Ollama model specialized for UniFi API</text>
  <rect class="shim" x="196" y="132" width="340" height="3" rx="1.5" fill="url(#u)"/>
  <rect x="196" y="146" width="68" height="24" rx="12" fill="#a371f7" fill-opacity=".12" stroke="#a371f7" stroke-opacity=".7"/><text x="230" y="162" text-anchor="middle" font-size="12" fill="#a371f7">Ollama</text><rect x="274" y="146" width="90" height="24" rx="12" fill="#58a6ff" fill-opacity=".12" stroke="#58a6ff" stroke-opacity=".7"/><text x="319" y="162" text-anchor="middle" font-size="12" fill="#58a6ff">Modelfile</text><rect x="374" y="146" width="98" height="24" rx="12" fill="#3fb950" fill-opacity=".12" stroke="#3fb950" stroke-opacity=".7"/><text x="423" y="162" text-anchor="middle" font-size="12" fill="#3fb950">fabric-llm</text>
  <line x1="1" y1="182" x2="899" y2="182" stroke="#21262d"/>
  <circle class="step" style="animation-delay:0.0s" cx="40" cy="204" r="4" fill="#a371f7"/><text x="52" y="208" font-size="12.5" fill="#8b949e">prompt</text><text x="102.8" y="208" font-size="12" fill="#484f58">→</text><circle class="step" style="animation-delay:0.6s" cx="130.8" cy="204" r="4" fill="#a371f7"/><text x="142.8" y="208" font-size="12.5" fill="#8b949e">model</text><text x="185.8" y="208" font-size="12" fill="#484f58">→</text><circle class="step" style="animation-delay:1.2s" cx="213.8" cy="204" r="4" fill="#a371f7"/><text x="225.8" y="208" font-size="12.5" fill="#8b949e">tools</text><text x="268.8" y="208" font-size="12" fill="#484f58">→</text><circle class="step" style="animation-delay:1.8s" cx="296.8" cy="204" r="4" fill="#a371f7"/><text x="308.8" y="208" font-size="12.5" fill="#8b949e">answer</text>
</svg>
